<svg xmlns="http://www.w3.org/2000/svg" width="49.862" height="49.862" viewBox="0 0 49.862 49.862"><defs><style>.a{fill:#6c5ce7;}</style></defs><g transform="translate(-563.001 -351)"><rect class="a" width="10.803" height="1.662" transform="translate(567.156 355.987)"/><rect class="a" width="10.803" height="1.662" transform="translate(567.156 359.311)"/><rect class="a" width="7.479" height="1.662" transform="translate(567.156 362.635)"/><rect class="a" width="7.479" height="1.662" transform="translate(567.156 365.959)"/><rect class="a" width="49.861" height="1.662" transform="translate(563.001 399.2)"/><path class="a" d="M611.112,358.109l-3.324-6.649a.83.83,0,0,0-1.114-.372h0l-6.648,3.324a.832.832,0,0,0,.743,1.488l4.815-2.406-1.314,3.751a44.348,44.348,0,0,1-38.015,29.49l.141,1.662a46.009,46.009,0,0,0,39.444-30.6l1.341-3.832,2.445,4.891a.831.831,0,1,0,1.487-.743Zm0,0"/><path class="a" d="M572.973,390.89h-5.817a.83.83,0,0,0-.831.831v4.986a.83.83,0,0,0,.831.831h5.817a.831.831,0,0,0,.831-.831v-4.986a.831.831,0,0,0-.831-.831Zm-.831,4.986h-4.155v-3.324h4.155Zm0,0"/><path class="a" d="M582.114,388.4H576.3a.831.831,0,0,0-.831.831v7.479a.831.831,0,0,0,.831.831h5.817a.831.831,0,0,0,.831-.831v-7.479a.831.831,0,0,0-.831-.831Zm-.831,7.479h-4.155v-5.817h4.155Zm0,0"/><path class="a" d="M591.255,384.242h-5.817a.831.831,0,0,0-.831.831v11.634a.831.831,0,0,0,.831.831h5.817a.831.831,0,0,0,.831-.831V385.073a.831.831,0,0,0-.831-.831Zm-.831,11.634h-4.155V385.9h4.155Zm0,0"/><path class="a" d="M600.4,378.424h-5.818a.832.832,0,0,0-.831.831v17.452a.831.831,0,0,0,.831.831H600.4a.832.832,0,0,0,.831-.831V379.255a.832.832,0,0,0-.831-.831Zm-.831,17.452h-4.155v-15.79h4.155Zm0,0"/><path class="a" d="M609.538,366.79h-5.817a.83.83,0,0,0-.831.831v29.086a.83.83,0,0,0,.831.831h5.817a.831.831,0,0,0,.831-.831V367.621a.831.831,0,0,0-.831-.831Zm-.831,29.086h-4.155V368.452h4.155Zm0,0"/></g></svg>