<svg xmlns="http://www.w3.org/2000/svg" width="29.713" height="34.813" viewBox="0 0 29.713 34.813"><defs><style>.a{fill:#00b592;}</style></defs><path class="a" d="M382.347,217.2v4.225a1.024,1.024,0,0,1-1.02,1.02H357.72a1.024,1.024,0,0,1-1.02-1.02V221h21.317l-5.06-5.122-1.631,1.63a.577.577,0,0,1-.955-.224l-3.26-9.784a.576.576,0,0,1,.729-.729l9.783,3.261a.576.576,0,0,1,.225.954l-1.631,1.631,4.491,4.546V191.7a2.031,2.031,0,0,0-2.033-2.033H356.7a2.036,2.036,0,0,0-2.033,2.033v29.727a3.059,3.059,0,0,0,3.053,3.053h23.607a3.06,3.06,0,0,0,3.053-3.053V217.2Zm-16.818-7.113-2.446,2.446a.577.577,0,1,1-.815-.815l2.446-2.446a.577.577,0,0,1,.815.815Zm4.076-5.707,2.446-2.445a.577.577,0,1,1,.815.815l-2.446,2.445a.577.577,0,0,1-.815-.815Zm-2.614-4.064a.576.576,0,1,1,1.152,0v3.459a.576.576,0,1,1-1.152,0Zm-4.723,1.619a.576.576,0,0,1,.815,0l2.446,2.445a.577.577,0,0,1-.815.815l-2.446-2.446A.577.577,0,0,1,362.268,201.931Zm-1.618,4.723h3.459a.576.576,0,1,1,0,1.153h-3.459a.576.576,0,0,1,0-1.153Z" transform="translate(-354.667 -189.667)"/></svg>